<svg id="Group_878" data-name="Group 878" xmlns="http://www.w3.org/2000/svg" width="23.197" height="23.197" viewBox="0 0 23.197 23.197">
  <g id="Path_417" data-name="Path 417" fill="none">
    <path d="M11.6,0A11.6,11.6,0,1,1,0,11.6,11.6,11.6,0,0,1,11.6,0Z" stroke="none"/>
    <path d="M 11.5986328125 2.000001907348633 C 6.305932998657227 2.000001907348633 2.000001907348633 6.305932998657227 2.000001907348633 11.5986328125 C 2.000001907348633 16.89133262634277 6.305932998657227 21.19726181030273 11.5986328125 21.19726181030273 C 16.89133262634277 21.19726181030273 21.19726181030273 16.89133262634277 21.19726181030273 11.5986328125 C 21.19726181030273 6.305932998657227 16.89133262634277 2.000001907348633 11.5986328125 2.000001907348633 M 11.5986328125 1.9073486328125e-06 C 18.0043830871582 1.9073486328125e-06 23.19726371765137 5.192882537841797 23.19726371765137 11.5986328125 C 23.19726371765137 18.0043830871582 18.0043830871582 23.19726371765137 11.5986328125 23.19726371765137 C 5.192882537841797 23.19726371765137 1.9073486328125e-06 18.0043830871582 1.9073486328125e-06 11.5986328125 C 1.9073486328125e-06 5.192882537841797 5.192882537841797 1.9073486328125e-06 11.5986328125 1.9073486328125e-06 Z" stroke="none" fill="#277afc"/>
  </g>
  <g id="Group_897" data-name="Group 897" transform="translate(8.202 8.651)">
    <path id="Path_413" data-name="Path 413" d="M-6658.013-11958v5.673" transform="translate(6661.014 11957.999)" fill="none" stroke="#277afc" stroke-linecap="round" stroke-width="2"/>
    <path id="Path_414" data-name="Path 414" d="M-6668.424-11948.158c8.753,0,5.123,0,5.123,0" transform="translate(6668.424 11950.994)" fill="none" stroke="#277afc" stroke-linecap="round" stroke-width="2"/>
  </g>
</svg>
