<svg xmlns="http://www.w3.org/2000/svg" width="17.106" height="17.106" viewBox="0 0 17.106 17.106"><defs><style>.a,.b{fill:none;}.b{stroke:#fff;stroke-linecap:round;stroke-width:2px;}.c,.d{stroke:none;}.d{fill:#f2f7ff;}</style></defs><g class="a"><path class="c" d="M8.553,0A8.553,8.553,0,1,1,0,8.553,8.553,8.553,0,0,1,8.553,0Z"/><path class="d" d="M 8.553167343139648 1.999997138977051 C 4.939737319946289 1.999997138977051 1.999997138977051 4.939737319946289 1.999997138977051 8.553167343139648 C 1.999997138977051 12.16659736633301 4.939737319946289 15.10633754730225 8.553167343139648 15.10633754730225 C 12.16659736633301 15.10633754730225 15.10633754730225 12.16659736633301 15.10633754730225 8.553167343139648 C 15.10633754730225 4.939737319946289 12.16659736633301 1.999997138977051 8.553167343139648 1.999997138977051 M 8.553167343139648 -1.9073486328125e-06 C 13.27694702148438 -1.9073486328125e-06 17.10633659362793 3.829387664794922 17.10633659362793 8.553167343139648 C 17.10633659362793 13.27694702148438 13.27694702148438 17.10633659362793 8.553167343139648 17.10633659362793 C 3.829387664794922 17.10633659362793 -1.9073486328125e-06 13.27694702148438 -1.9073486328125e-06 8.553167343139648 C -1.9073486328125e-06 3.829387664794922 3.829387664794922 -1.9073486328125e-06 8.553167343139648 -1.9073486328125e-06 Z"/></g><path class="b" d="M3371.567,3020.082s3.125,2.823,3.117,2.977-3.117,2.552-3.117,2.552" transform="translate(-3364.412 -3014.147)"/></svg>