<svg id="Group_896" data-name="Group 896" xmlns="http://www.w3.org/2000/svg" width="18.353" height="18.353" viewBox="0 0 18.353 18.353">
  <path id="Path_410" data-name="Path 410" d="M0,23.134Z" transform="translate(0 -9.839)" fill="#fff"/>
  <g id="Group_878" data-name="Group 878">
    <g id="Path_417" data-name="Path 417" fill="none">
      <path d="M9.177,0A9.177,9.177,0,1,1,0,9.177,9.177,9.177,0,0,1,9.177,0Z" stroke="none"/>
      <path d="M 9.176525115966797 0.9999942779541016 C 4.667975425720215 0.9999942779541016 0.9999942779541016 4.667975425720215 0.9999942779541016 9.176525115966797 C 0.9999942779541016 13.6850757598877 4.667975425720215 17.3530445098877 9.176525115966797 17.3530445098877 C 13.6850757598877 17.3530445098877 17.3530445098877 13.6850757598877 17.3530445098877 9.176525115966797 C 17.3530445098877 4.667975425720215 13.6850757598877 0.9999942779541016 9.176525115966797 0.9999942779541016 M 9.176525115966797 -5.7220458984375e-06 C 14.24458503723145 -5.7220458984375e-06 18.3530445098877 4.108474731445313 18.3530445098877 9.176525115966797 C 18.3530445098877 14.24458503723145 14.24458503723145 18.3530445098877 9.176525115966797 18.3530445098877 C 4.108474731445313 18.3530445098877 -5.7220458984375e-06 14.24458503723145 -5.7220458984375e-06 9.176525115966797 C -5.7220458984375e-06 4.108474731445313 4.108474731445313 -5.7220458984375e-06 9.176525115966797 -5.7220458984375e-06 Z" stroke="none" fill="#fff"/>
    </g>
    <g id="Group_1326" data-name="Group 1326" transform="translate(12.171 12.103) rotate(180)">
      <path id="Path_2060" data-name="Path 2060" d="M0,3.2A39.111,39.111,0,0,1,2.874,0a37.893,37.893,0,0,1,2.78,3.2" transform="translate(0 0)" fill="none" stroke="#fff" stroke-linecap="round" stroke-width="1"/>
      <path id="Path_2061" data-name="Path 2061" d="M0,0,.061,5.155" transform="translate(3.023 1.255)" fill="none" stroke="#fff" stroke-linecap="round" stroke-width="1"/>
    </g>
  </g>
</svg>
