<svg id="Group_878" data-name="Group 878" xmlns="http://www.w3.org/2000/svg" width="18.353" height="18.353" viewBox="0 0 18.353 18.353">
  <g id="Path_417" data-name="Path 417" fill="#fff">
    <path d="M 9.176525115966797 17.85305595397949 C 4.392275333404541 17.85305595397949 0.5000051259994507 13.96077537536621 0.5000051259994507 9.176525115966797 C 0.5000051259994507 4.392275333404541 4.392275333404541 0.5000051259994507 9.176525115966797 0.5000051259994507 C 13.96077537536621 0.5000051259994507 17.85305595397949 4.392275333404541 17.85305595397949 9.176525115966797 C 17.85305595397949 11.45117473602295 16.99434471130371 13.51917552947998 15.30078506469727 15.32307529449463 C 13.82618522644043 16.90787506103516 11.53730487823486 17.85305595397949 9.176525115966797 17.85305595397949 Z" stroke="none"/>
    <path d="M 9.176525115966797 0.9999942779541016 C 4.667975425720215 0.9999942779541016 0.9999942779541016 4.667975425720215 0.9999942779541016 9.176525115966797 C 0.9999942779541016 13.6850757598877 4.667975425720215 17.3530445098877 9.176525115966797 17.3530445098877 C 11.40097522735596 17.3530445098877 13.55300521850586 16.46746444702148 14.93626499176025 14.98084545135498 C 16.53992462158203 13.27269554138184 17.3530445098877 11.31984519958496 17.3530445098877 9.176525115966797 C 17.3530445098877 4.667975425720215 13.6850757598877 0.9999942779541016 9.176525115966797 0.9999942779541016 M 9.176525115966797 -5.7220458984375e-06 C 14.24458503723145 -5.7220458984375e-06 18.3530445098877 4.108474731445313 18.3530445098877 9.176525115966797 C 18.3530445098877 11.59904479980469 17.41434478759766 13.80231475830078 15.66531562805176 15.66530513763428 C 14.20612525939941 17.23354530334473 11.82206535339355 18.3530445098877 9.176525115966797 18.3530445098877 C 4.108474731445313 18.3530445098877 -5.7220458984375e-06 14.24458503723145 -5.7220458984375e-06 9.176525115966797 C -5.7220458984375e-06 4.108474731445313 4.108474731445313 -5.7220458984375e-06 9.176525115966797 -5.7220458984375e-06 Z" stroke="none" fill="#fff"/>
  </g>
  <g id="Group_1326" data-name="Group 1326" transform="translate(12.171 12.103) rotate(180)">
    <path id="Path_2060" data-name="Path 2060" d="M0,3.2A39.111,39.111,0,0,1,2.874,0a37.893,37.893,0,0,1,2.78,3.2" transform="translate(0 0)" fill="none" stroke="#000" stroke-linecap="round" stroke-width="1"/>
    <path id="Path_2061" data-name="Path 2061" d="M0,0,.061,5.155" transform="translate(3.023 1.255)" fill="none" stroke="#000" stroke-linecap="round" stroke-width="1"/>
  </g>
</svg>
